<svg width="102" height="26" viewBox="0 0 102 26" fill="none" xmlns="http://www.w3.org/2000/svg">
<path d="M15.0586 12.1095C15.0808 10.3355 15.9859 8.69688 17.4567 7.76771C16.5246 6.39983 15.0194 5.56365 13.3951 5.51143C11.6862 5.32712 10.0295 6.56218 9.15871 6.56218C8.27104 6.56218 6.93028 5.52973 5.4865 5.56026C3.58686 5.62332 1.85882 6.70623 0.934607 8.41278C-1.03354 11.9142 0.434521 17.0601 2.31984 19.8904C3.26311 21.2763 4.36551 22.8245 5.80799 22.7696C7.21954 22.7094 7.74672 21.8447 9.45059 21.8447C11.1386 21.8447 11.6332 22.7696 13.105 22.7346C14.6196 22.7094 15.574 21.3426 16.4841 19.9435C17.1619 18.956 17.6834 17.8646 18.0294 16.7097C16.2304 15.9279 15.0607 14.1166 15.0586 12.1095Z" fill="white"/>
<path d="M12.2787 3.65013C13.1046 2.6314 13.5114 1.322 13.4129 0C12.1512 0.136171 10.9857 0.755808 10.1487 1.73545C9.32219 2.702 8.90348 3.9665 8.9848 5.25044C10.2634 5.26397 11.4775 4.67414 12.2787 3.65013Z" fill="white"/>
<path fill-rule="evenodd" clip-rule="evenodd" d="M28.0846 19.261H32.9015L34.0573 22.7709H36.1324L31.5698 9.7854H29.45L24.8875 22.7709H26.9278L28.0846 19.261ZM32.4017 17.6415H28.5834L30.4667 11.9453H30.5194L32.4017 17.6415Z" fill="white"/>
<path fill-rule="evenodd" clip-rule="evenodd" d="M42.1409 22.8699C44.4535 22.8699 45.986 20.9797 45.986 18.0377C45.986 15.1038 44.4445 13.2044 42.1061 13.2044C40.9029 13.1645 39.7757 13.8076 39.1724 14.8781H39.1376V13.3034H37.307V25.9028H39.1982V21.2135H39.242C39.8196 22.2908 40.9456 22.9342 42.1409 22.8699ZM41.6072 14.8609C43.0781 14.8609 44.0421 16.1211 44.0421 18.0378C44.0421 19.972 43.0781 21.2229 41.6072 21.2229C40.1623 21.2229 39.1903 19.9454 39.1903 18.0378C39.1903 16.1476 40.1623 14.8609 41.6072 14.8609Z" fill="white"/>
<path fill-rule="evenodd" clip-rule="evenodd" d="M52.2817 22.8699C54.5943 22.8699 56.1267 20.9797 56.1267 18.0377C56.1267 15.1038 54.5853 13.2044 52.2469 13.2044C51.0436 13.1645 49.9165 13.8076 49.3132 14.8781H49.2784V13.3034H47.4478V25.9028H49.339V21.2135H49.3828C49.9604 22.2908 51.0863 22.9342 52.2817 22.8699ZM51.748 14.8609C53.2189 14.8609 54.1828 16.1211 54.1828 18.0378C54.1828 19.972 53.2189 21.2229 51.748 21.2229C50.303 21.2229 49.3311 19.9454 49.3311 18.0378C49.3311 16.1476 50.303 14.8609 51.748 14.8609Z" fill="white"/>
<path d="M62.829 19.1529C62.9691 20.4406 64.1865 21.2861 65.8501 21.2861C67.4442 21.2861 68.591 20.4405 68.591 19.2794C68.591 18.2715 67.8993 17.668 66.2616 17.2544L64.6238 16.849C62.3032 16.2731 61.226 15.1579 61.226 13.3484C61.226 11.1079 63.1261 9.56895 65.8243 9.56895C68.4946 9.56895 70.3252 11.1079 70.3868 13.3484H68.4777C68.3634 12.0525 67.3209 11.2703 65.7974 11.2703C64.2739 11.2703 63.2314 12.0617 63.2314 13.2136C63.2314 14.1316 63.8973 14.6718 65.5261 15.0854L66.9184 15.4367C69.5113 16.0667 70.5886 17.137 70.5886 19.0364C70.5886 21.4658 68.7053 22.9873 65.71 22.9873C62.9074 22.9873 61.0152 21.5015 60.893 19.1528L62.829 19.1529Z" fill="white"/>
<path d="M74.6701 11.0629V13.3034H76.4222V14.8424H74.6701V20.0617C74.6701 20.8725 75.0209 21.2503 75.7911 21.2503C75.9991 21.2466 76.2068 21.2316 76.4133 21.2054V22.7351C76.067 22.8016 75.715 22.8317 75.3628 22.825C73.4974 22.825 72.77 22.105 72.77 20.2689V14.8424H71.4303V13.3034H72.77V11.0629H74.6701Z" fill="white"/>
<path fill-rule="evenodd" clip-rule="evenodd" d="M81.8067 13.187C79.1443 13.187 77.4369 15.0588 77.4369 18.0376C77.4369 21.0246 79.1273 22.8883 81.8067 22.8883C84.487 22.8883 86.1774 21.0246 86.1774 18.0376C86.1774 15.0588 84.478 13.187 81.8067 13.187ZM81.8067 14.7881C83.3391 14.7881 84.2504 15.9942 84.2504 18.0376C84.2504 20.0891 83.3391 21.286 81.8067 21.286C80.2742 21.286 79.3639 20.0891 79.3639 18.0376C79.3639 16.0034 80.2742 14.7881 81.8067 14.7881Z" fill="white"/>
<path d="M87.7367 13.3034H89.5404V14.9148H89.5842C89.8357 13.8774 90.7607 13.1635 91.8004 13.2043C92.0183 13.2035 92.2357 13.2278 92.4483 13.2768V15.0945C92.1732 15.0081 91.8862 14.9684 91.5986 14.9771C91.0426 14.9539 90.5045 15.1816 90.1256 15.6004C89.7467 16.0191 89.5649 16.5871 89.6279 17.1553V22.7708H87.7367L87.7367 13.3034Z" fill="white"/>
<path fill-rule="evenodd" clip-rule="evenodd" d="M97.2007 22.8883C99.2847 22.8883 100.914 21.7088 101.168 19.9901L99.3721 19.9901C99.0275 20.8686 98.1622 21.4101 97.2444 21.3218C96.5563 21.3478 95.8904 21.0688 95.4162 20.5557C94.942 20.0426 94.7051 19.3449 94.7659 18.6401V18.5227H101.273V17.8569C101.273 14.9863 99.6703 13.187 97.1212 13.187C94.5293 13.187 92.8568 15.1129 92.8568 18.0825C92.8568 21.043 94.5204 22.8883 97.2007 22.8883ZM99.3811 17.1645L94.7748 17.1645C94.7732 16.5253 95.0201 15.9119 95.4608 15.4607C95.9014 15.0095 96.4991 14.7578 97.1212 14.7616C97.7383 14.748 98.3331 14.9995 98.7621 15.4557C99.191 15.9118 99.4154 16.5311 99.3811 17.1645Z" fill="white"/>
<path fill-rule="evenodd" clip-rule="evenodd" d="M29.7996 1.34514C29.2557 0.770812 28.4829 0.470649 27.694 0.527265H25.5387V6.4941H27.694C29.4713 6.4941 30.5016 5.39835 30.5016 3.4921C30.6011 2.70741 30.3434 1.91946 29.7996 1.34514ZM27.5905 5.65026H26.4655V1.37047H27.5905C28.1513 1.33935 28.6967 1.56049 29.0775 1.9734C29.4582 2.38631 29.6346 2.94779 29.5582 3.50426C29.6406 4.06306 29.4667 4.62921 29.085 5.04552C28.7033 5.46182 28.1543 5.68397 27.5905 5.65026Z" fill="white"/>
<path fill-rule="evenodd" clip-rule="evenodd" d="M32.5472 2.22486C31.8583 2.65238 31.4713 3.43349 31.5485 4.2406C31.4698 5.04859 31.8565 5.83122 32.546 6.25965C33.2355 6.68809 34.1085 6.68809 34.798 6.25965C35.4876 5.83122 35.8742 5.04859 35.7955 4.2406C35.8728 3.43349 35.4857 2.65238 34.7968 2.22486C34.1079 1.79735 33.2361 1.79735 32.5472 2.22486ZM33.6735 2.69373C34.443 2.69373 34.8815 3.26453 34.8815 4.2406C34.8815 5.22058 34.443 5.79089 33.6735 5.7909C32.901 5.7909 32.4665 5.2245 32.4665 4.24061C32.4665 3.26453 32.901 2.69373 33.6735 2.69373Z" fill="white"/>
<path d="M41.4411 6.49401H40.5192L39.5885 3.1776H39.5182L38.5914 6.49401H37.6784L36.4372 1.99108H37.3385L38.1452 5.42708H38.2116L39.1374 1.99108H39.9899L40.9157 5.42708H40.986L41.7887 1.99108H42.6774L41.4411 6.49401Z" fill="white"/>
<path d="M43.7213 1.99108H44.5768V2.70641H44.6432C44.8741 2.17974 45.4138 1.85757 45.987 1.90416C46.4308 1.8708 46.8657 2.04105 47.1689 2.36687C47.4721 2.69268 47.6107 3.13869 47.5455 3.57896V6.49396H46.6569V3.80212C46.6569 3.07849 46.3424 2.71862 45.6852 2.71862C45.3842 2.7046 45.092 2.82275 44.8853 3.04208C44.6787 3.26142 44.5781 3.56007 44.61 3.85973V6.49401H43.7213L43.7213 1.99108Z" fill="white"/>
<path d="M48.9616 0.233265H49.8502V6.494H48.9616V0.233265Z" fill="white"/>
<path fill-rule="evenodd" clip-rule="evenodd" d="M52.0845 2.22478C51.3955 2.6523 51.0084 3.43344 51.0856 4.2406C51.007 5.04862 51.3937 5.83122 52.0833 6.25964C52.7729 6.68805 53.6458 6.68805 54.3354 6.25964C55.025 5.83122 55.4117 5.04862 55.3331 4.2406C55.4103 3.43344 55.0232 2.6523 54.3342 2.22478C53.6453 1.79726 52.7735 1.79726 52.0845 2.22478ZM53.2106 2.69373C53.9801 2.69373 54.4186 3.26453 54.4186 4.2406C54.4186 5.22058 53.9801 5.79089 53.2106 5.7909C52.4382 5.7909 52.0036 5.2245 52.0036 4.24061C52.0036 3.26453 52.4381 2.69373 53.2106 2.69373Z" fill="white"/>
<path fill-rule="evenodd" clip-rule="evenodd" d="M57.9435 3.87634C56.8722 3.94275 56.2687 4.41004 56.2687 5.22058C56.2702 5.60491 56.4342 5.97066 56.7202 6.22742C57.0062 6.48418 57.3874 6.60798 57.7697 6.56821C58.315 6.59343 58.8317 6.32334 59.1222 5.86121H59.1925V6.49402H60.048V3.41736C60.048 2.46618 59.4113 1.90418 58.2824 1.90418C57.2609 1.90418 56.5333 2.40027 56.4425 3.17371H57.3029C57.4015 2.85535 57.7453 2.67322 58.2414 2.67322C58.8488 2.67322 59.1632 2.94177 59.1632 3.41736V3.80603L57.9435 3.87634ZM59.1632 4.45935V4.83581C59.1438 5.12281 59.0087 5.38962 58.7889 5.57518C58.5691 5.76074 58.2834 5.84915 57.9972 5.82018C57.5138 5.82018 57.1622 5.58434 57.1622 5.17907C57.1622 4.7821 57.4435 4.57117 58.0636 4.52966L59.1632 4.45935Z" fill="white"/>
<path fill-rule="evenodd" clip-rule="evenodd" d="M63.0851 1.91638C61.9474 1.91638 61.216 2.81775 61.216 4.2406C61.216 5.66687 61.9396 6.56826 63.0851 6.56821C63.6659 6.58962 64.2105 6.287 64.4992 5.78258H64.5695V6.494H65.421V0.233265H64.5324V2.70638H64.466C64.1976 2.19774 63.6596 1.88992 63.0851 1.91638ZM63.3371 5.7704C62.5842 5.7704 62.1339 5.19568 62.1339 4.2406C62.1339 3.29333 62.589 2.71473 63.3371 2.71473C64.0812 2.71473 64.549 3.30604 64.549 4.24451C64.549 5.1874 64.0861 5.7704 63.3371 5.7704Z" fill="white"/>
<path fill-rule="evenodd" clip-rule="evenodd" d="M70.0965 2.22486C69.4076 2.65238 69.0206 3.43349 69.0978 4.2406C69.0191 5.04859 69.4058 5.83122 70.0953 6.25965C70.7849 6.68809 71.6578 6.68809 72.3473 6.25965C73.0369 5.83122 73.4235 5.04859 73.3449 4.2406C73.4221 3.43349 73.0351 2.65238 72.3461 2.22486C71.6572 1.79735 70.7855 1.79735 70.0965 2.22486ZM71.2228 2.69373C71.9923 2.69373 72.4308 3.26453 72.4308 4.2406C72.4308 5.22058 71.9923 5.79089 71.2228 5.7909C70.4504 5.7909 70.0158 5.2245 70.0158 4.24061C70.0158 3.26453 70.4503 2.69373 71.2228 2.69373Z" fill="white"/>
<path d="M74.5372 1.99108H75.3927V2.70641H75.4591C75.6901 2.17974 76.2297 1.85757 76.8029 1.90416C77.2467 1.8708 77.6816 2.04105 77.9848 2.36687C78.288 2.69268 78.4266 3.13869 78.3615 3.57896V6.49396H77.4728V3.80212C77.4728 3.07849 77.1583 2.71862 76.5011 2.71862C76.2001 2.7046 75.9079 2.82275 75.7013 3.04208C75.4946 3.26142 75.394 3.56007 75.4259 3.85973V6.49401H74.5372V1.99108Z" fill="white"/>
<path d="M83.3829 0.869995V2.01159H84.3585V2.76013H83.3829V5.07557C83.3829 5.54725 83.5773 5.75379 84.0197 5.75379C84.1329 5.75342 84.2461 5.74657 84.3585 5.73327V6.47351C84.199 6.50206 84.0373 6.51725 83.8751 6.51892C82.8869 6.51892 82.4933 6.17126 82.4933 5.30309V2.76009H81.7785V2.01155H82.4933V0.869995H83.3829Z" fill="white"/>
<path d="M85.5724 0.233265H86.4533V2.71472H86.5236C86.7656 2.18343 87.3147 1.86085 87.8966 1.90807C88.3379 1.88406 88.7669 2.05807 89.0668 2.3827C89.3667 2.70733 89.5062 3.14877 89.4473 3.58678V6.49401H88.5578V3.80602C88.5578 3.08678 88.2228 2.72251 87.5949 2.72251C87.2857 2.69716 86.9811 2.80956 86.7625 3.02966C86.5439 3.24976 86.4336 3.55513 86.4611 3.86411V6.49399H85.5724L85.5724 0.233265Z" fill="white"/>
<path fill-rule="evenodd" clip-rule="evenodd" d="M92.6779 6.58092C93.5579 6.67637 94.3799 6.12757 94.629 5.27819L93.7736 5.27816C93.5603 5.6606 93.137 5.87626 92.7023 5.82407C92.367 5.82779 92.0457 5.6899 91.8174 5.44431C91.589 5.19871 91.4749 4.86821 91.5031 4.53406V4.48426H94.6828V4.17417C94.6828 2.76017 93.9269 1.90417 92.674 1.90417C92.072 1.89904 91.4974 2.15535 91.0991 2.60671C90.7008 3.05807 90.5179 3.66006 90.5978 4.25671C90.5157 4.85172 90.6993 5.45274 91.0998 5.90032C91.5004 6.3479 92.0774 6.59678 92.6779 6.58092ZM93.7775 3.82702H91.5031C91.499 3.51652 91.6206 3.21754 91.8401 2.99791C92.0596 2.77829 92.3585 2.65662 92.6691 2.66052C92.9754 2.6535 93.2705 2.77618 93.4816 2.99832C93.6926 3.22047 93.8001 3.52143 93.7775 3.82702Z" fill="white"/>
</svg>
