<svg width="116" height="28" viewBox="0 0 116 28" fill="none" xmlns="http://www.w3.org/2000/svg">
<path fill-rule="evenodd" clip-rule="evenodd" d="M37.446 3.377C37.446 4.215 37.198 4.882 36.701 5.38C36.136 5.972 35.401 6.268 34.497 6.268C33.631 6.268 32.894 5.968 32.289 5.367C31.682 4.767 31.38 4.022 31.38 3.134C31.38 2.245 31.682 1.501 32.289 0.9C32.894 0.3 33.631 0 34.497 0C34.926 0 35.338 0.084 35.728 0.251C36.119 0.419 36.432 0.642 36.667 0.921L36.139 1.449C35.742 0.975 35.195 0.737 34.497 0.737C33.865 0.737 33.319 0.959 32.858 1.403C32.397 1.848 32.167 2.424 32.167 3.134C32.167 3.843 32.397 4.42 32.858 4.864C33.319 5.309 33.865 5.53 34.497 5.53C35.167 5.53 35.725 5.307 36.173 4.86C36.463 4.569 36.631 4.165 36.675 3.645H34.497V2.924H37.404C37.432 3.081 37.446 3.231 37.446 3.377Z" fill="#1C7DD7"/>
<path fill-rule="evenodd" clip-rule="evenodd" d="M42.0553 0.8711H39.3233V2.7731H41.7863V3.4941H39.3233V5.3961H42.0553V6.1341H38.5523V0.1341H42.0553V0.8711Z" fill="#1C7DD7"/>
<path fill-rule="evenodd" clip-rule="evenodd" d="M45.3063 6.1338H44.5353V0.8708H42.8593V0.1338H46.9823V0.8708H45.3063V6.1338Z" fill="#1C7DD7"/>
<path fill-rule="evenodd" clip-rule="evenodd" d="M49.9656 6.1339H50.7366V0.1339H49.9656V6.1339Z" fill="#1C7DD7"/>
<path fill-rule="evenodd" clip-rule="evenodd" d="M54.1559 6.1338H53.3849V0.8708H51.7089V0.1338H55.8319V0.8708H54.1559V6.1338Z" fill="#1C7DD7"/>
<path fill-rule="evenodd" clip-rule="evenodd" d="M59.8068 4.856C60.2508 5.306 60.7938 5.53 61.4368 5.53C62.0788 5.53 62.6228 5.306 63.0668 4.856C63.5108 4.406 63.7338 3.832 63.7338 3.134C63.7338 2.436 63.5108 1.861 63.0668 1.412C62.6228 0.962 62.0788 0.737 61.4368 0.737C60.7938 0.737 60.2508 0.962 59.8068 1.412C59.3638 1.861 59.1408 2.436 59.1408 3.134C59.1408 3.832 59.3638 4.406 59.8068 4.856ZM63.6368 5.358C63.0468 5.965 62.3138 6.268 61.4368 6.268C60.5598 6.268 59.8268 5.965 59.2378 5.358C58.6478 4.752 58.3538 4.011 58.3538 3.134C58.3538 2.257 58.6478 1.515 59.2378 0.909C59.8268 0.303 60.5598 0 61.4368 0C62.3088 0 63.0398 0.304 63.6328 0.913C64.2248 1.522 64.5208 2.262 64.5208 3.134C64.5208 4.011 64.2258 4.752 63.6368 5.358Z" fill="#1C7DD7"/>
<path fill-rule="evenodd" clip-rule="evenodd" d="M65.6027 6.13378V0.133778H66.5407L69.4567 4.80078H69.4907L69.4567 3.64478V0.133778H70.2287V6.13378H69.4237L66.3737 1.23978H66.3397L66.3737 2.39678V6.13378H65.6027Z" fill="#1C7DD7"/>
<path fill-rule="evenodd" clip-rule="evenodd" d="M96.9636 23.1339H98.8286V10.6329H96.9636V23.1339ZM113.771 15.1359L111.632 20.5559H111.568L109.348 15.1359H107.338L110.668 22.7109L108.769 26.9249H110.715L115.846 15.1359H113.771ZM103.188 21.7139C102.578 21.7139 101.725 21.4079 101.725 20.6519C101.725 19.6879 102.787 19.3169 103.704 19.3169C104.523 19.3169 104.91 19.4949 105.408 19.7349C105.263 20.8939 104.266 21.7139 103.188 21.7139ZM103.414 14.8619C102.063 14.8619 100.664 15.4579 100.085 16.7759L101.741 17.4679C102.095 16.7759 102.754 16.5509 103.446 16.5509C104.411 16.5509 105.392 17.1299 105.408 18.1589V18.2879C105.07 18.0949 104.346 17.8059 103.462 17.8059C101.676 17.8059 99.8586 18.7869 99.8586 20.6199C99.8586 22.2929 101.323 23.3709 102.963 23.3709C104.217 23.3709 104.91 22.8079 105.343 22.1479H105.408V23.1129H107.21V18.3199C107.21 16.1009 105.552 14.8619 103.414 14.8619ZM91.8816 16.6579H89.2276V12.3729H91.8816C93.2766 12.3729 94.0686 13.5269 94.0686 14.5149C94.0686 15.4839 93.2766 16.6579 91.8816 16.6579ZM91.8336 10.6319H87.3626V23.1339H89.2276V18.3979H91.8336C93.9016 18.3979 95.9346 16.8999 95.9346 14.5149C95.9346 12.1299 93.9016 10.6319 91.8336 10.6319ZM67.4526 21.7159C66.1636 21.7159 65.0846 20.6369 65.0846 19.1549C65.0846 17.6559 66.1636 16.5609 67.4526 16.5609C68.7246 16.5609 69.7236 17.6559 69.7236 19.1549C69.7236 20.6369 68.7246 21.7159 67.4526 21.7159ZM69.5946 15.8359H69.5306C69.1116 15.3369 68.3056 14.8849 67.2916 14.8849C65.1646 14.8849 63.2146 16.7539 63.2146 19.1549C63.2146 21.5389 65.1646 23.3919 67.2916 23.3919C68.3056 23.3919 69.1116 22.9409 69.5306 22.4249H69.5946V23.0369C69.5946 24.6649 68.7246 25.5339 67.3236 25.5339C66.1796 25.5339 65.4706 24.7129 65.1806 24.0199L63.5536 24.6969C64.0206 25.8239 65.2606 27.2099 67.3236 27.2099C69.5146 27.2099 71.3676 25.9209 71.3676 22.7789V15.1429H69.5946V15.8359ZM72.6566 23.1339H74.5246V10.6329H72.6566V23.1339ZM77.2796 19.0099C77.2316 17.3659 78.5526 16.5289 79.5026 16.5289C80.2446 16.5289 80.8726 16.8999 81.0826 17.4309L77.2796 19.0099ZM83.0796 17.5919C82.7246 16.6419 81.6456 14.8849 79.4386 14.8849C77.2476 14.8849 75.4266 16.6089 75.4266 19.1389C75.4266 21.5229 77.2316 23.3919 79.6476 23.3919C81.5966 23.3919 82.7246 22.1999 83.1926 21.5069L81.7426 20.5399C81.2586 21.2489 80.5986 21.7159 79.6476 21.7159C78.6976 21.7159 78.0206 21.2809 77.5866 20.4269L83.2726 18.0749L83.0796 17.5919ZM37.7716 16.1909V17.9949H42.0886C41.9606 19.0099 41.6216 19.7509 41.1066 20.2659C40.4776 20.8949 39.4946 21.5879 37.7716 21.5879C35.1126 21.5879 33.0346 19.4449 33.0346 16.7869C33.0346 14.1289 35.1126 11.9849 37.7716 11.9849C39.2056 11.9849 40.2526 12.5489 41.0256 13.2749L42.2986 12.0019C41.2186 10.9709 39.7856 10.1809 37.7716 10.1809C34.1296 10.1809 31.0686 13.1459 31.0686 16.7869C31.0686 20.4269 34.1296 23.3919 37.7716 23.3919C39.7366 23.3919 41.2186 22.7469 42.3786 21.5389C43.5706 20.3469 43.9416 18.6709 43.9416 17.3179C43.9416 16.8999 43.9096 16.5129 43.8446 16.1909H37.7716ZM48.8496 21.7159C47.5616 21.7159 46.4496 20.6529 46.4496 19.1389C46.4496 17.6079 47.5616 16.5609 48.8496 16.5609C50.1386 16.5609 51.2506 17.6079 51.2506 19.1389C51.2506 20.6529 50.1386 21.7159 48.8496 21.7159ZM48.8496 14.8849C46.4976 14.8849 44.5806 16.6739 44.5806 19.1389C44.5806 21.5879 46.4976 23.3919 48.8496 23.3919C51.2026 23.3919 53.1196 21.5879 53.1196 19.1389C53.1196 16.6739 51.2026 14.8849 48.8496 14.8849ZM58.1636 21.7159C56.8746 21.7159 55.7626 20.6529 55.7626 19.1389C55.7626 17.6079 56.8746 16.5609 58.1636 16.5609C59.4526 16.5609 60.5636 17.6079 60.5636 19.1389C60.5636 20.6529 59.4526 21.7159 58.1636 21.7159ZM58.1636 14.8849C55.8116 14.8849 53.8946 16.6739 53.8946 19.1389C53.8946 21.5879 55.8116 23.3919 58.1636 23.3919C60.5156 23.3919 62.4326 21.5879 62.4326 19.1389C62.4326 16.6739 60.5156 14.8849 58.1636 14.8849Z" fill="#1C7DD7"/>
<mask id="mask0" mask-type="alpha" maskUnits="userSpaceOnUse" x="0" y="0" width="13" height="26">
<path fill-rule="evenodd" clip-rule="evenodd" d="M0.463595 0.671877C0.172595 0.979877 0.000595093 1.45788 0.000595093 2.07688V24.1929C0.000595093 24.8129 0.172595 25.2899 0.463595 25.5969L0.536595 25.6699L12.9266 13.2809V13.1349V12.9889L0.536595 0.598877L0.463595 0.671877Z" fill="white"/>
</mask>
<g mask="url(#mask0)">
<path fill-rule="evenodd" clip-rule="evenodd" d="M0.463595 0.671877C0.172595 0.979877 0.000595093 1.45788 0.000595093 2.07688V24.1929C0.000595093 24.8129 0.172595 25.2899 0.463595 25.5969L0.536595 25.6699L12.9266 13.2809V13.1349V12.9889L0.536595 0.598877L0.463595 0.671877Z" fill="#00D2FF"/>
</g>
<mask id="mask1" mask-type="alpha" maskUnits="userSpaceOnUse" x="12" y="8" width="12" height="10">
<path fill-rule="evenodd" clip-rule="evenodd" d="M12.9266 12.9889V13.1349V13.2809L17.0556 17.4119L17.1496 17.3599L22.0426 14.5799C23.4396 13.7849 23.4396 12.4849 22.0426 11.6909L17.1496 8.91091L17.0566 8.85791L12.9266 12.9889Z" fill="white"/>
</mask>
<g mask="url(#mask1)">
<path fill-rule="evenodd" clip-rule="evenodd" d="M12.9266 12.9889V13.1349V13.2809L17.0556 17.4119L17.1496 17.3599L22.0426 14.5799C23.4396 13.7849 23.4396 12.4849 22.0426 11.6909L17.1496 8.91091L17.0566 8.85791L12.9266 12.9889Z" fill="#FFC802"/>
</g>
<mask id="mask2" mask-type="alpha" maskUnits="userSpaceOnUse" x="0" y="13" width="18" height="13">
<path fill-rule="evenodd" clip-rule="evenodd" d="M0.463608 25.5969C0.923608 26.0849 1.68461 26.1459 2.54161 25.6589L17.1496 17.3589L12.9266 13.1349L0.463608 25.5969Z" fill="white"/>
</mask>
<g mask="url(#mask2)">
<path fill-rule="evenodd" clip-rule="evenodd" d="M0.463608 25.5969C0.923608 26.0849 1.68461 26.1459 2.54161 25.6589L17.1496 17.3589L12.9266 13.1349L0.463608 25.5969Z" fill="url(#paint0_linear)"/>
</g>
<mask id="mask3" mask-type="alpha" maskUnits="userSpaceOnUse" x="0" y="0" width="18" height="14">
<path fill-rule="evenodd" clip-rule="evenodd" d="M0.463608 0.671926L12.9266 13.1349L17.1496 8.91093L2.54161 0.610926C2.13961 0.381926 1.75861 0.273926 1.42061 0.273926C1.03661 0.273926 0.707608 0.412926 0.463608 0.671926Z" fill="white"/>
</mask>
<g mask="url(#mask3)">
<path fill-rule="evenodd" clip-rule="evenodd" d="M0.463608 0.671926L12.9266 13.1349L17.1496 8.91093L2.54161 0.610926C2.13961 0.381926 1.75861 0.273926 1.42061 0.273926C1.03661 0.273926 0.707608 0.412926 0.463608 0.671926Z" fill="#00F076"/>
</g>
<path fill-rule="evenodd" clip-rule="evenodd" d="M17.0563 17.2656L2.5413 25.5136C1.7293 25.9736 1.0033 25.9436 0.537303 25.5236L0.463303 25.5986L0.536303 25.6706L0.537303 25.6696C1.0033 26.0896 1.7293 26.1206 2.5413 25.6596L17.1493 17.3586L17.0563 17.2656Z" fill="white"/>
<path fill-rule="evenodd" clip-rule="evenodd" d="M0.463 25.4522C0.172 25.1442 0 24.6662 0 24.0472V24.1932C0 24.8122 0.172 25.2902 0.463 25.5982L0.537 25.5242L0.463 25.4522Z" fill="white"/>
<path fill-rule="evenodd" clip-rule="evenodd" d="M22.0422 14.4326L17.0562 17.2656L17.1492 17.3586L22.0422 14.5786C22.7412 14.1816 23.0902 13.6586 23.0902 13.1356C23.0312 13.6086 22.6762 14.0726 22.0422 14.4326Z" fill="white"/>
<path fill-rule="evenodd" clip-rule="evenodd" d="M2.5412 0.756785L22.0422 11.8368C22.6762 12.1968 23.0312 12.6608 23.0902 13.1348C23.0912 12.6118 22.7412 12.0878 22.0422 11.6908L2.5412 0.610785C1.1432 -0.183215 0.000198364 0.476785 0.000198364 2.07679V2.22279C0.000198364 0.622785 1.1432 -0.037215 2.5412 0.756785Z" fill="white"/>
<defs>
<linearGradient id="paint0_linear" x1="0.0899803" y1="6.65986" x2="-15.8382" y2="33.4752" gradientUnits="userSpaceOnUse">
<stop stop-color="#FF3A44"/>
<stop offset="1" stop-color="#C31162"/>
</linearGradient>
</defs>
</svg>
