<svg width="63" height="63" viewBox="0 0 63 63" fill="none" xmlns="http://www.w3.org/2000/svg">
<g filter="url(#filter0_d)">
<path fill-rule="evenodd" clip-rule="evenodd" d="M42.5 37.492C42.4933 43.8368 37.3463 48.9796 31 48.9796C18.2991 48.9796 8 38.7009 8 26C8 13.3022 18.2941 3.00503 30.9907 3C30.9938 3 30.9969 3 31 3C43.7009 3 53.9796 13.2991 54 26C54 38.7009 43.7009 49 31 49C37.3504 49 42.5 43.8504 42.5 37.5C42.5 37.4973 42.5 37.4947 42.5 37.492ZM30.4411 3.01335C24.3502 3.3049 19.5 8.33632 19.5 14.4796C19.5 14.4814 19.5 14.4831 19.5 14.4849C19.5079 8.32869 24.3551 3.30467 30.4411 3.01335Z" fill="white"/>
</g>
<path d="M31 48.9796C37.3504 48.9796 42.5 43.8301 42.5 37.4796C42.5 31.1292 37.3504 25.9796 31 25.9796C24.6496 25.9796 19.5 20.8301 19.5 14.4796C19.5 8.14956 24.6496 3 31 3C18.2991 3 8 13.2991 8 26C8 38.7009 18.2991 48.9796 31 48.9796Z" fill="#BCBCBC"/>
<path d="M31 3C24.6495 3 19.5 8.14956 19.5 14.5C19.5 20.8504 24.6495 26 31 26C37.3504 26 42.5 31.1496 42.5 37.5C42.5 43.8504 37.3504 49 31 49C43.7009 49 54 38.7009 54 26C53.9796 13.2991 43.7009 3 31 3Z" fill="url(#paint0_linear)"/>
<path d="M34.4602 14.3982C34.4602 16.3726 32.8726 17.9602 30.8982 17.9602C28.9239 17.9602 27.3363 16.3726 27.3363 14.3982C27.3363 12.4239 28.9239 10.8363 30.8982 10.8363C32.8726 10.8363 34.4602 12.4239 34.4602 14.3982Z" fill="#BCBCBC"/>
<path d="M34.4652 38.331C34.9297 36.4194 33.7566 34.4933 31.845 34.0288C29.9335 33.5644 28.0074 34.7375 27.5429 36.649C27.0785 38.5605 28.2516 40.4867 30.1631 40.9511C32.0746 41.4156 34.0008 40.2425 34.4652 38.331Z" fill="white"/>
<path d="M14.7779 22.723C15.1646 24.1071 14.5947 25.1248 13.1292 25.5319C11.6637 25.9389 10.6053 25.369 10.2186 23.985L9.70973 22.1327L14.269 20.8504L14.7779 22.723ZM10.9513 23.0487L11.0938 23.5982C11.2973 24.3513 11.8673 24.6363 12.7832 24.3717C13.6381 24.1274 13.9841 23.5779 13.7805 22.8451L13.6381 22.2956L10.9513 23.0487Z" fill="url(#paint1_linear)"/>
<path d="M14.2487 29.9894C13.5566 30.2743 12.8239 29.9486 12.3354 29.1548C11.7451 28.1778 12.0097 27.2416 12.9867 26.6513C13.9841 26.061 14.9611 26.2646 15.5106 27.2009C16.0602 28.1168 15.8159 29.0734 14.8796 29.6433L14.5947 29.8062L13.3531 27.7301L13.292 27.7708C12.9257 27.9947 12.8239 28.3814 13.0274 28.7478C13.1903 29.0124 13.4345 29.1548 13.6991 29.0938L14.2487 29.9894ZM13.9434 27.4044L14.615 28.5239C14.9407 28.3203 15.0221 27.954 14.8186 27.6486C14.6354 27.323 14.269 27.2416 13.9434 27.4044Z" fill="url(#paint2_linear)"/>
<path d="M14.8593 30.9257C15.3274 30.4575 15.9584 30.5593 16.6505 31.1699L17.2814 31.7195L17.4239 31.577C17.6274 31.3734 17.5867 31.1292 17.3832 30.9053C17.1593 30.6814 16.8947 30.6611 16.7319 30.7832L15.9991 30.0504C16.5487 29.5619 17.3221 29.6637 18.0345 30.3558C18.7062 31.0274 18.808 31.8212 18.2991 32.3301L16.569 34.0602L15.7752 33.2664L16.1416 32.9L16.1212 32.8796C15.7345 33.0018 15.2867 32.8389 14.9814 32.5336C14.4726 32.0655 14.3912 31.3734 14.8593 30.9257ZM16.6301 32.3708L16.8133 32.1876L16.3248 31.7602C16.1009 31.5566 15.877 31.5363 15.7142 31.6788C15.5513 31.8416 15.592 32.0655 15.7752 32.269C16.0398 32.5133 16.4062 32.5947 16.6301 32.3708Z" fill="url(#paint3_linear)"/>
<path d="M21.3319 32.1062L20.8841 32.7779L21.4337 33.1239L20.9655 33.8363L20.4363 33.4902L19.6221 34.7522C19.4797 34.9557 19.5204 35.1389 19.7646 35.2814C19.846 35.3221 19.9071 35.3628 19.9682 35.4035L19.5204 36.0955C19.4186 36.0548 19.2558 35.9734 19.0726 35.8513C18.2991 35.3424 18.1567 34.8947 18.523 34.3248L19.4797 32.8796L19.0726 32.615L19.5407 31.9026L19.9478 32.1672L20.3956 31.4956L21.3319 32.1062Z" fill="url(#paint4_linear)"/>
<path d="M22.431 32.4115L23.4894 32.8186L22.8381 34.5283H22.8584C23.2044 34.1416 23.6522 34.0398 24.1611 34.2434C24.9142 34.5283 25.1381 35.1593 24.8327 35.9531L23.9982 38.0903L22.9195 37.6628L23.6726 35.7699C23.815 35.4035 23.7133 35.0982 23.3673 34.9557C23.0009 34.8133 22.6956 34.9965 22.5531 35.3628L21.8204 37.2354L20.7416 36.808L22.431 32.4115Z" fill="url(#paint5_linear)"/>
<path d="M38.0832 19.7513L35.2744 18.3062L37.4319 14.0929L38.5106 14.6425L36.8009 17.9805L38.5514 18.8761L38.0832 19.7513Z" fill="#BCBCBC"/>
<path d="M40.6478 17.2274L41.6044 17.8991L39.5487 20.8097L38.592 20.1381L40.6478 17.2274ZM41.1363 16.5151C41.3195 16.2505 41.6858 16.2097 41.9504 16.3929C42.2354 16.5965 42.2964 16.9425 42.1133 17.2071C41.9301 17.4717 41.5841 17.5328 41.2991 17.3292C41.0141 17.1257 40.9531 16.7797 41.1363 16.5151Z" fill="#BCBCBC"/>
<path d="M42.1743 19.446L41.8283 19.1203L42.3779 18.5097L42.7239 18.8354L42.8664 18.6725C43.3345 18.1433 43.8027 18.1433 44.4947 18.754C44.6575 18.8964 44.8 19.0593 44.8814 19.161L44.3929 19.6902C44.3522 19.6292 44.2911 19.5681 44.2097 19.5071C43.9655 19.3035 43.7823 19.3035 43.6602 19.446L43.5584 19.5681L44.0673 20.0363L43.5177 20.6469L43.0292 20.1991L41.2177 22.2141L40.3628 21.4407L42.1743 19.446Z" fill="#BCBCBC"/>
<path d="M45.1053 25.0026C44.454 25.369 43.6805 25.1451 43.0903 24.4124C42.3779 23.5168 42.5204 22.5602 43.4159 21.8274C44.3115 21.115 45.3292 21.1965 46.0009 22.0513C46.6726 22.8858 46.5505 23.8628 45.6752 24.5549L45.4106 24.7584L43.9248 22.8655L43.8637 22.9062C43.5381 23.1708 43.477 23.5779 43.7416 23.9035C43.9452 24.1478 44.2098 24.2495 44.4336 24.1681L45.1053 25.0026ZM44.454 22.4788L45.2682 23.4965C45.5531 23.2522 45.5938 22.8858 45.3699 22.6009C45.146 22.3159 44.7797 22.2752 44.454 22.4788Z" fill="#BCBCBC"/>
<path d="M46.7744 30.1726C46.408 29.969 46.062 29.5416 45.8381 28.992C45.4514 28.0354 45.6753 27.2416 46.4283 26.9363C46.9168 26.7328 47.3646 26.8345 47.8938 27.262C47.9142 27.2823 48.0974 27.4248 48.0974 27.4248C48.3416 26.8549 48.5655 26.6106 48.8708 26.4885C49.4814 26.2443 50.1328 26.631 50.4381 27.3841C50.7434 28.1372 50.5399 28.8292 49.9292 29.0735C49.4814 29.2566 48.9929 29.1142 48.4434 28.6664L47.9549 29.6637C48.1381 29.6841 48.362 29.6434 48.6673 29.5416L48.9522 29.4195L49.2983 30.2947L48.9319 30.4372C48.4637 30.6204 47.9549 30.6611 47.5682 30.5389L47.039 31.7398L46.5708 30.5796L46.7744 30.1726ZM46.9168 27.8929C46.5708 28.0354 46.4691 28.4018 46.6319 28.8089C46.7337 29.0938 46.9372 29.3177 47.1611 29.3991L47.7514 28.1372C47.731 28.1168 47.6699 28.0761 47.6496 28.0558C47.3646 27.8522 47.1611 27.8115 46.9168 27.8929ZM49.5222 28.2797C49.7664 28.1779 49.8682 27.9336 49.7868 27.6894C49.685 27.4451 49.4407 27.323 49.1965 27.4248C49.0133 27.5062 48.8912 27.6487 48.7487 28.0354C49.0337 28.3 49.2779 28.3611 49.5222 28.2797Z" fill="#BCBCBC"/>
<defs>
<filter id="filter0_d" x="0.309116" y="0.802604" width="61.9811" height="61.9811" filterUnits="userSpaceOnUse" color-interpolation-filters="sRGB">
<feFlood flood-opacity="0" result="BackgroundImageFix"/>
<feColorMatrix in="SourceAlpha" type="matrix" values="0 0 0 0 0 0 0 0 0 0 0 0 0 0 0 0 0 0 127 0"/>
<feOffset dx="0.299645" dy="5.79313"/>
<feGaussianBlur stdDeviation="3.99526"/>
<feColorMatrix type="matrix" values="0 0 0 0 1 0 0 0 0 1 0 0 0 0 1 0 0 0 0.26 0"/>
<feBlend mode="normal" in2="BackgroundImageFix" result="effect1_dropShadow"/>
<feBlend mode="normal" in="SourceGraphic" in2="effect1_dropShadow" result="shape"/>
</filter>
<linearGradient id="paint0_linear" x1="46.6282" y1="5.35897" x2="54" y2="42.2179" gradientUnits="userSpaceOnUse">
<stop stop-color="white"/>
<stop offset="1" stop-color="#E3E3E3"/>
</linearGradient>
<linearGradient id="paint1_linear" x1="12.3027" y1="20.8504" x2="12.3027" y2="25.6606" gradientUnits="userSpaceOnUse">
<stop stop-color="white"/>
<stop offset="1" stop-color="white" stop-opacity="0.87"/>
</linearGradient>
<linearGradient id="paint2_linear" x1="13.912" y1="26.3189" x2="13.912" y2="30.091" gradientUnits="userSpaceOnUse">
<stop stop-color="white"/>
<stop offset="1" stop-color="white" stop-opacity="0.87"/>
</linearGradient>
<linearGradient id="paint3_linear" x1="16.5851" y1="29.7472" x2="16.5851" y2="34.0602" gradientUnits="userSpaceOnUse">
<stop stop-color="white"/>
<stop offset="1" stop-color="white" stop-opacity="0.87"/>
</linearGradient>
<linearGradient id="paint4_linear" x1="19.8821" y1="31.4956" x2="19.8821" y2="36.0955" gradientUnits="userSpaceOnUse">
<stop stop-color="white"/>
<stop offset="1" stop-color="white" stop-opacity="0.87"/>
</linearGradient>
<linearGradient id="paint5_linear" x1="22.8532" y1="32.4115" x2="22.8532" y2="38.0903" gradientUnits="userSpaceOnUse">
<stop stop-color="white"/>
<stop offset="1" stop-color="white" stop-opacity="0.87"/>
</linearGradient>
</defs>
</svg>
