<svg width="35" height="34" viewBox="0 0 35 34" fill="none" xmlns="http://www.w3.org/2000/svg">
<g opacity="0.9">
<path fill-rule="evenodd" clip-rule="evenodd" d="M34.4766 17C34.4766 26.3888 26.8654 34 17.4766 34C8.08772 34 0.476562 26.3888 0.476562 17C0.476562 7.61116 8.08772 0 17.4766 0C26.8654 0 34.4766 7.61116 34.4766 17ZM25.5556 12.8566C26.3774 12.759 27.1611 12.5405 27.8896 12.2175C27.3451 13.0323 26.6562 13.7478 25.8617 14.3206C25.8695 14.4945 25.8735 14.67 25.8735 14.846C25.8735 20.2162 21.7861 26.408 14.3119 26.408C12.0172 26.408 9.88079 25.7355 8.08346 24.5821C8.40074 24.62 8.725 24.6391 9.05228 24.6391C10.9566 24.6391 12.7085 23.9897 14.0994 22.8997C12.3209 22.8666 10.8205 21.6917 10.3035 20.0777C10.5514 20.125 10.8057 20.1502 11.0681 20.1502C11.4381 20.1502 11.7978 20.1008 12.1385 20.0074C10.2799 19.6344 8.87864 17.9922 8.87864 16.0234C8.87864 16.0064 8.87864 15.9891 8.87894 15.9718C9.42654 16.277 10.0535 16.4597 10.7193 16.4806C9.62957 15.7521 8.91167 14.5078 8.91167 13.0984C8.91167 12.3538 9.11228 11.6553 9.46199 11.0553C11.4663 13.5145 14.4607 15.1321 17.8377 15.3015C17.768 15.0039 17.732 14.6939 17.732 14.3754C17.732 12.1317 19.5517 10.3119 21.7955 10.3119C22.9649 10.3119 24.021 10.8053 24.7622 11.5947C25.6874 11.4126 26.5575 11.0747 27.3426 10.6089C27.0387 11.5584 26.3947 12.3538 25.5556 12.8566Z" fill="#BCBCBC"/>
</g>
</svg>
